<?xml version="1.0" encoding="utf-8"?>
<!-- Generator: Adobe Illustrator 24.2.1, SVG Export Plug-In . SVG Version: 6.00 Build 0)  -->
<svg version="1.1" id="Layer_1" xmlns="http://www.w3.org/2000/svg" xmlns:xlink="http://www.w3.org/1999/xlink" x="0px" y="0px"
	 viewBox="0 0 1920 1080" style="enable-background:new 0 0 1920 1080;" xml:space="preserve">
<g>
	<g>
		<path d="M2.7,618.3c121.1,1.9,226.2,70.3,320.2,140c47.9,35.5,95,71.9,145.1,104.3c48.7,31.4,99.3,59.7,151.6,84.6
			c52,24.8,105.5,46.4,160.2,64.5c56.6,18.7,114.8,35.4,174.3,41.1c62.3,5.9,123.1-8,185.2-10.1c59-2,117.8,5.9,175.7,16.5
			c112,20.5,224.6,52.5,339.5,44.7c13.6-0.9,27.2-2.5,40.8-4.6c3.2-0.5,1.8-5.3-1.3-4.8c-116.6,17.9-232.6-11.7-346.3-34.2
			c-55.9-11-112.3-20.7-169.4-22.6c-29.5-1-58.8,0.6-88.2,3.7c-31.3,3.4-62.6,7.8-94.1,8.2c-62.4,0.7-123.8-14.6-183.1-32.6
			c-56.2-17.1-111.2-37.8-164.7-62c-52.8-23.9-104-51.1-153.3-81.4c-50.5-31.1-98.1-66.1-145.5-101.7
			c-91.5-68.6-189.4-139.7-305.9-155.5c-13.5-1.8-27.1-2.8-40.7-3.1C-0.6,613.2-0.6,618.2,2.7,618.3L2.7,618.3z"/>
	</g>
</g>
<g>
	<g>
		<path d="M-27.3,194c88.6,71.4,201.9,99.2,313.8,102.2c127.7,3.3,252.3-25.8,376.2-53.4c68.9-15.3,138-30.2,208.1-38.6
			c70-8.3,140.1-8.5,210.3-1.6c138.8,13.6,275.3,48.4,415.3,50.1c65.8,0.8,132.2-5.7,195.3-25.3c63.4-19.7,121.1-53.1,176.6-88.9
			c13.9-9,27.6-18.1,41.4-27.2c2.7-1.8,0.2-6.1-2.5-4.3c-55.7,36.9-111.9,74.2-173.8,100c-61.7,25.7-128,37.6-194.6,40.2
			c-136.8,5.4-270.9-25.9-405.7-43.5c-68.9-9-138.3-13.9-207.8-9.4c-67.1,4.3-133.5,16-199.3,29.8
			c-127.1,26.6-253.5,61.6-383.9,66.8c-113.5,4.5-232.4-12.2-329.7-74.3c-12.5-8-24.5-16.7-36.1-26C-26.3,188.5-29.8,192-27.3,194
			L-27.3,194z"/>
	</g>
</g>
<g>
	<g>
		<path d="M1957.6,816.3c-141.6-77-282.9-154.7-424.9-230.9c-65.3-35.1-131.9-68.8-202.6-91.8c-72-23.5-146.7-31.9-221.9-36.4
			c-78.6-4.7-157.2-7-234.7-21.7c-73.1-13.8-144.5-36.1-213.2-64.4c-91.8-37.8-177.4-87.1-262.3-138.2
			C283.4,163.9,169.4,94,55.6,23.9C38.8,13.6,22,3.2,5.3-7.2C2.5-8.9,0-4.5,2.7-2.8C119.2,69.1,236,140.6,353,211.5
			c82.1,49.8,164.2,99.7,251.3,140.4c67.1,31.3,136.8,57.1,208.6,75.3c73.1,18.5,147.2,26.8,222.4,31c78.5,4.4,157.8,6.5,234.8,23.9
			c73.9,16.7,143.6,47.4,210.8,81.7c69.8,35.7,138.2,74.1,207,111.6c71.4,38.8,142.7,77.6,214.1,116.4c17.7,9.6,35.4,19.2,53.1,28.9
			C1957.9,822.2,1960.4,817.9,1957.6,816.3L1957.6,816.3z"/>
	</g>
</g>
<g>
	<g>
		<path d="M1296.7-41.2c-61.1,28.1-120.3,60.1-177,96.2c-25.4,16.1-50.1,33.2-75,50c-25.8,17.5-51.6,35.1-75.8,54.7
			c-37.5,30.2-71.6,67-80.9,115.7c-6.9,35.7-1.4,72,0.4,107.9c1.7,32.7-1.4,64.9-11,96.3C859.4,538.2,822.6,590,776,629.4
			c-53,44.8-118.1,69.2-183.4,90c-62.8,20-126.9,37.7-184.7,70.2c-26.1,14.7-50.8,32.2-72,53.4c-23.5,23.6-39.2,51-53.9,80.6
			c-14.7,29.6-32.6,55.9-58.6,76.7c-20.1,16.1-43,28.1-66.8,37.7c-24.3,9.8-49.4,18.8-74.9,24.8c-30.8,7.2-62.5,10.4-94.2,9.8
			c-11.6-0.2-23.1-1-34.6-2.2c-3.2-0.3-3.2,4.7,0,5c60.6,6.5,120.8-1.6,178-22.4c45-16.4,88.5-36.1,120.9-72.7
			c23.3-26.4,34.9-59,52.6-88.8c16.3-27.5,38.7-50.9,64.1-70.2c51.8-39.4,113.7-61.8,175.1-81.2c66.9-21.2,136.1-40.1,196-77.8
			c50.2-31.6,92.8-76.1,120.7-128.6c13.9-26.2,24.1-54.5,29.4-83.7c6.2-34.2,3.6-68.1,1.2-102.5c-2.2-31.8-2.8-64.3,8.6-94.5
			c8.6-22.9,23.2-42.8,40.2-60.2c20.2-20.7,43.4-38.3,66.9-55.1c27.9-20,56.5-39,85-58.2c50.3-33.8,102.8-64.4,156.9-91.8
			c16.8-8.5,33.7-16.6,50.8-24.5C1302.2-38.2,1299.6-42.5,1296.7-41.2L1296.7-41.2z"/>
	</g>
</g>
</svg>
